<?xml version="1.0" encoding="utf-8"?>
<!-- Generator: Adobe Illustrator 18.1.1, SVG Export Plug-In . SVG Version: 6.00 Build 0)  -->
<svg version="1.1" xmlns="http://www.w3.org/2000/svg" xmlns:xlink="http://www.w3.org/1999/xlink" x="0px" y="0px"
	 viewBox="0 0 640 820" enable-background="new 0 0 640 820" xml:space="preserve">
<g id="Frame">
	<path fill="#E6E7E8" d="M14,0H0v14v146v14v14v76.7v14v14v76.7v14v14v54v14v14v7.3v14v14v54v14v14v54v14v14v7.3v14v14v7.3v14v14v7.3
		v14v14V806v14h14h445h14h14h139h14v-14v-21.3v-14v-14v-7.3v-14v-14V714v-14v-14v-7.3v-14v-14v-54v-14v-14v-54v-14v-14v-7.3v-14v-14
		v-54v-14v-14v-76.7v-14v-14V188v-14v-14V14V0h-14H14z M14,174h292v90.7H14V174z M14,278.7h292v14v76.7H14V278.7z M14,479.3h139
		v21.3H14V479.3z M14,664.7h292V686H14V664.7z M14,700h292v14v21.3H14V700z M459,806H14v-35.3h445V806z M626,806H473v-35.3h153V806z
		 M626,756.7H487h-14h-14H14v-7.3h292h14h14h125h14h14h139V756.7z M320,735.3V700h139v35.3H320z M626,735.3H473V700h153V735.3z
		 M626,686H487h-14h-14H334h-14v-21.3h306V686z M626,650.7H334h-14h-14H14v-68h612V650.7z M626,568.7H14v-54h139h14h14h445V568.7z
		 M626,500.7H167v-21.3h459V500.7z M626,465.3H167H14v-82h306h306V465.3z M626,369.3H320v-90.7h306V369.3z M626,264.7H334h-14V174
		h306V264.7z M626,160H334h-14h-14H14V14h612V160z"/>
</g>
<g id="_x32_3-24">
	<g>
		<polygon fill="#FFB500" points="320,686 334,686 459,686 473,686 487,686 626,686 626,664.7 14,664.7 14,686 306,686 		"/>
	</g>
</g>
<g id="_x31_9-22">
	<g>
		<polygon fill="#FFB500" points="320,650.7 334,650.7 626,650.7 626,582.7 14,582.7 14,650.7 306,650.7 		"/>
	</g>
</g>
<g id="_x31_8">
	<g>
		<polygon fill="#FFB500" points="14,568.7 626,568.7 626,514.7 181,514.7 167,514.7 153,514.7 14,514.7 		"/>
	</g>
</g>
<g id="_x31_4">
	<g>
		<rect x="320" y="278.7" fill="#FFB500" width="306" height="90.7"/>
	</g>
</g>
<g id="_x31_3">
	<g>
		<polygon fill="#FFB500" points="14,369.3 306,369.3 306,292.7 306,278.7 14,278.7 		"/>
	</g>
</g>
<g id="_x31_2">
	<g>
		<polygon fill="#FFB500" points="334,264.7 626,264.7 626,174 320,174 320,264.7 		"/>
	</g>
</g>
<g id="_x31_1">
	<g>
		<rect x="14" y="174" fill="#FFB500" width="292" height="90.7"/>
	</g>
</g>
<g id="_x31_-10">
	<g>
		<polygon fill="#FFB500" points="320,160 334,160 626,160 626,14 14,14 14,160 306,160 		"/>
	</g>
</g>
</svg>
