<svg version="1.1" id="hand-app" xmlns="http://www.w3.org/2000/svg" xmlns:xlink="http://www.w3.org/1999/xlink" x="0px" y="0px"
	 viewBox="192 -117.1 793.3 1026.1" style="enable-background:new 192 -117.1 793.3 1026.1;" xml:space="preserve" preserveAspectRatio="xMinYMid">
<style type="text/css">
	.st0{clip-path:url(#SVGID_2_);}
	.st1{fill:#F2D9C4;}
	.st2{fill:#C2D64A;}
	.st3{fill:#21B1BF;}
	.st4{fill:#1995A3;}
	.st5{fill:#A4B83B;}
	.st6{fill:#5C6475;}
	.st7{fill:#351C15;}
	.st8{fill:#454B58;}
	.st9{fill:#FDB515;}
</style>
<g>
	<defs>
		<rect id="SVGID_1_" x="192" y="-117.1" width="793.3" height="1026.1"/>
	</defs>
	<clipPath id="SVGID_2_">
		<use xlink:href="#SVGID_1_"  style="overflow:visible;"/>
	</clipPath>
	<g class="st0">
		<path class="st1" d="M941.2,164.4l-51,16.7c-23.8,7.8-49.7-5.3-57.5-29.2l0,0c-7.8-23.8,5.3-49.7,29.2-57.5l51-16.7
			c23.8-7.8,49.7,5.3,57.5,29.2l0,0C978.2,130.7,965,156.6,941.2,164.4z"/>
		<path class="st1" d="M617.3,591.2l-25.1,19.6c-69.1,54-169.8,41.6-223.8-27.5L325.1,528c-54-69.1-41.6-169.8,27.5-223.8l25.1-19.6
			c69.1-54,169.8-41.6,223.8,27.5l43.2,55.3C698.8,436.5,686.4,537.2,617.3,591.2z"/>
		<polygon class="st1" points="521.9,279.1 653.5,223.8 754.2,412.5 788.9,521.9 573.8,628.8 526.2,642.5 490.8,642.5 499.2,287.4 
					"/>
		
			<rect x="191.3" y="477.4" transform="matrix(-0.7071 -0.7071 0.7071 -0.7071 111.2258 1228.1373)" class="st1" width="237.3" height="227.3"/>
		<polygon class="st2" points="319.2,752.5 138.7,572.7 230.3,480.7 410.9,660.5 		"/>
		<polygon class="st3" points="-35,1121.7 -229.1,928.4 206.4,491.1 400.6,684.5 		"/>
		<polygon class="st4" points="386.2,698.9 192,505.6 206.4,491.1 400.6,684.5 		"/>
		<polygon class="st5" points="421.5,671.2 331.3,581.4 314.2,598.5 404.4,688.3 		"/>
		<polygon class="st4" points="299.8,613 -121.3,1035.8 -24.3,1132.4 396.8,709.6 		"/>
		<polygon class="st4" points="314.2,598.5 299.8,613 396.8,709.6 411.2,695.1 404.4,688.3 		"/>
		<g>
			<path class="st6" d="M751.8,541.7c-5.8,17.1-24.4,26.2-41.5,20.3l-239.8-82c-17.1-5.8-26.2-24.4-20.3-41.5L627.1-79
				c5.8-17.1,24.4-26.2,41.5-20.3l239.8,82c17.1,5.8,26.2,24.4,20.3,41.5L751.8,541.7z"/>
			
				<rect x="555.9" y="-6.2" transform="matrix(-0.9462 -0.3235 0.3235 -0.9462 1279.15 649.6944)" class="st7" width="275.4" height="449.5"/>
			<circle class="st8" cx="606" cy="478.8" r="24.9"/>
			<path class="st8" d="M815.8-11c-1.6,4.7-6.8,7.2-11.5,5.6l-61.2-20.9c-4.7-1.6-7.2-6.8-5.6-11.5l0-0.1c1.6-4.7,6.8-7.2,11.5-5.6
				l61.2,20.9c4.7,1.6,7.2,6.8,5.6,11.5L815.8-11z"/>
		</g>
		<path class="st1" d="M883.1,300.6h-41c-25.1,0-45.6-20.5-45.6-45.6v-4.5c0-25.1,20.5-45.6,45.6-45.6h41
			c25.1,0,45.6,20.5,45.6,45.6v4.5C928.7,280.1,908.2,300.6,883.1,300.6z"/>
		<path class="st1" d="M827.7,419l-47.4-6.5c-24.8-3.4-42.4-26.5-39-51.3l1.3-9.3c3.4-24.9,26.5-42.4,51.3-39l47.4,6.5
			c24.8,3.4,42.4,26.5,39,51.3L879,380C875.6,404.8,852.5,422.4,827.7,419z"/>
		<path class="st1" d="M757.7,526.1l-42.6-9.6c-24.5-5.5-40-30-34.5-54.5l0,0c5.5-24.5,30-40,54.5-34.5l42.6,9.6
			c24.5,5.5,40,30,34.5,54.5l0,0C806.7,516.1,782.2,531.7,757.7,526.1z"/>
		<path class="st1" d="M609.1,75.5L609.1,75.5c36.6,36.6,10.8,103-9.5,122.6l-108.7,99.7c-20.3,19.5,38.7-65.3,19.1-85.5l0,0
			c-19.5-20.3-18.9-52.8,1.4-72.4l46-44.3L594.2,60L609.1,75.5z"/>
		<polygon class="st1" points="303.7,383.7 326.6,332.3 429.4,203.4 518.2,134.5 577.9,76.9 536.4,254.9 378.9,403 		"/>
		<g>
			<path class="st9" d="M719.4,266.3l-1.6,5.3l1,0.3c0,0,0.6-2,0.7-2.2c0.1,0,0.1,0,0.1,0c0,0.1,0.8,2.6,0.8,2.6l1.2,0.3
				c0,0-0.8-2.5-0.9-2.8c0.7,0,1.4-0.3,1.6-1.1c0.2-0.8,0-1.7-1.3-2.1C720.9,266.7,719.4,266.3,719.4,266.3z M720.6,267.4
				c0.8,0.2,0.8,0.7,0.7,1c-0.1,0.5-0.5,0.8-1.5,0.5c0,0-0.1,0-0.1,0c0.1-0.2,0.4-1.4,0.5-1.6C720.3,267.4,720.6,267.4,720.6,267.4z
				 M723.7,270.4c-0.6,2-2.7,3.1-4.6,2.5c-2-0.6-3.1-2.7-2.5-4.6c0.6-2,2.7-3.1,4.6-2.5C723.2,266.4,724.3,268.5,723.7,270.4z
				 M721.4,265c-2.4-0.7-4.9,0.7-5.6,3.1c-0.7,2.4,0.7,4.9,3.1,5.6c2.4,0.7,4.9-0.7,5.6-3.1C725.2,268.3,723.8,265.7,721.4,265z
				 M684.3,263.5c-2.8-2.3-25.6-21.5-32-31c-6.9-10.2-8.5-22.3-4.7-35.1l18.1-61c16.6-3.4,35.2-2.1,55.2,3.9
				c20,5.9,36.2,14.9,48.4,26.8l-18.1,61c-3.8,12.8-11.8,22.1-23.1,26.9C717.6,259.3,687.7,263,684.3,263.5z"/>
			<path class="st7" d="M652.3,198.7c-3.4,11.4-2,22.1,4.1,30.9c5.3,7.8,24.1,24.1,29.4,28.6c6.8-0.9,31.3-4.1,40.2-7.9
				c10-4.2,16.9-12.3,20.3-23.7l17.7-59.7c-29.3-11.7-65.5-20.6-101.4-3.1L652.3,198.7z M658,196.5l8.4-28.3l9,2.7l-8.5,28.7
				c-0.8,2.6-1.3,6.5,2.9,7.7c1.8,0.5,3.4,0.5,4.6,0.2l10.1-34l9,2.7l-11.6,39.1c-4.1,1.3-9.1,1.2-14.6-0.4
				C658.2,212.2,655.1,206,658,196.5z M688.9,241.2l-9-2.7l17.4-58.7c3.9-1.1,8.2-1.1,13.1,0.4c10.8,3.2,14.2,13.1,10.4,26.2
				c-3.9,13.2-12.3,20.5-22.3,17.5c-1.8-0.5-3.1-1.2-3.9-1.7L688.9,241.2L688.9,241.2z M704.9,187.2c0.8-0.1,2.2-0.1,3.4,0.3
				c5.2,1.5,6.2,6.4,3.2,16.5c-2.9,9.8-6.8,13.9-12,12.3c-1.2-0.4-2.2-1-2.8-1.4L704.9,187.2L704.9,187.2z M725.6,197.5
				c2.1-7.3,9.6-9.7,15.6-8.2c5,1.3,7.8,4.2,9,5.9l-2.3,7.8c-1.3-2.5-3.8-5.1-7-6.1c-2.5-0.8-5.5-0.4-6.6,2.7
				c-1.1,3.3,1.2,5.3,4,8.3c6.2,6.7,6.5,11.1,4.8,16.3c-1.9,5.7-7.7,10.8-16.6,8.2c-3.6-1.1-6.8-3.2-9.1-5.7l2.5-8.3
				c1.7,2.7,4.7,5.3,7.5,6.2c3.3,1,6-0.3,6.9-3.4c0.8-2.8-0.4-4.9-3.6-8.4C724.5,206.3,724.2,202.3,725.6,197.5z"/>
		</g>
	</g>
</g>
</svg>
