<?xml version="1.0" encoding="utf-8"?>
<!-- Generator: Adobe Illustrator 19.0.1, SVG Export Plug-In . SVG Version: 6.00 Build 0)  -->
<svg version="1.1" id="Layer" xmlns="http://www.w3.org/2000/svg" xmlns:xlink="http://www.w3.org/1999/xlink" x="0px" y="0px"
	 viewBox="0 0 109.25 129.167" enable-background="new 0 0 109.25 129.167" xml:space="preserve">
<g>
	<path fill="#FFB500" d="M89.097,121.55v5.516h0.997c0,0,0-2.066,0-2.301c0.066,0,0.093,0,0.141,0
		c0.074,0.111,1.498,2.301,1.498,2.301h1.206c0,0-1.512-2.211-1.66-2.428c0.729-0.174,1.222-0.703,1.222-1.467
		c0-0.783-0.483-1.621-1.837-1.621H89.097z M90.548,122.354c0.847,0,0.957,0.416,0.957,0.776c0,0.518-0.222,0.866-1.288,0.866
		c0,0-0.062,0-0.123,0c0-0.211,0-1.428,0-1.643C90.255,122.354,90.548,122.354,90.548,122.354z M94.443,124.323
		c0,2.054-1.671,3.728-3.739,3.728c-2.059,0-3.732-1.674-3.732-3.728c0-2.059,1.674-3.742,3.732-3.742
		C92.772,120.581,94.443,122.264,94.443,124.323z M90.701,119.779c-2.497,0-4.529,2.046-4.529,4.544
		c0,2.498,2.032,4.527,4.529,4.527c2.512,0,4.539-2.029,4.539-4.527C95.24,121.825,93.213,119.779,90.701,119.779z M54.625,128.847
		c-3.346-1.45-30.644-13.383-39.472-20.621C5.647,100.435,0.623,89.248,0.623,75.873V12.301C15.629,4.348,33.796,0.316,54.626,0.316
		c20.832,0,38.998,4.032,54.001,11.985v63.572c0,13.376-5.022,24.563-14.523,32.353C85.416,115.348,57.796,127.468,54.625,128.847z"
		/>
	<path fill="#351C15" d="M5.585,75.875c0,11.846,4.381,21.735,12.702,28.515c7.349,5.991,29.961,16.223,36.339,19.037
		c6.292-2.774,28.851-12.878,36.328-19.037c8.376-6.898,12.711-16.557,12.711-28.515V13.638c-31.44-2.921-68.64-1.128-98.08,25.873
		V75.875z M10.381,72.091V42.559h9.392v29.95c0,2.664,0.644,6.609,4.951,6.609c1.908,0,3.422-0.446,4.445-1.147V42.559h9.38v40.757
		c-3.589,2.441-8.407,3.773-14.158,3.773C15.096,87.09,10.381,82.047,10.381,72.091z M52.768,106.179H43.37V44.95
		c3.406-2.199,7.54-3.342,12.663-3.342c11.213,0,17.379,8.509,17.379,22.205c0,13.722-5.988,23.118-16.415,23.118
		c-1.927,0-3.289-0.257-4.228-0.535V106.179z M52.768,49.851c0.763-0.378,2.054-0.678,3.328-0.678c5.452,0,7.712,4.353,7.712,14.879
		c0,10.27-2.584,15.231-7.991,15.231c-1.271,0-2.376-0.313-3.048-0.566V49.851z M75.541,53.851
		c-0.04-7.592,6.423-12.063,12.605-12.244c5.157-0.158,8.656,1.781,10.309,3.052v8.169c-1.958-2.01-5.133-3.831-8.418-3.861
		c-2.661-0.023-5.434,1.149-5.525,4.488c-0.091,3.419,2.675,4.772,6.181,6.826c7.85,4.614,9.366,8.761,9.188,14.24
		c-0.18,6.008-4.322,12.567-13.607,12.567c-3.712,0-7.385-1.16-10.327-2.913v-8.653c2.4,2.136,5.983,3.802,8.981,3.824
		c3.446,0.015,5.714-1.96,5.633-5.237c-0.068-2.948-1.735-4.551-5.868-6.978C76.945,62.587,75.556,58.849,75.541,53.851z"/>
</g>
</svg>
