<?xml version="1.0" encoding="utf-8"?>
<!-- Generator: Adobe Illustrator 19.0.1, SVG Export Plug-In . SVG Version: 6.00 Build 0)  -->
<svg version="1.1" id="Layer_1" xmlns="http://www.w3.org/2000/svg" xmlns:xlink="http://www.w3.org/1999/xlink" x="0px" y="0px"
	 viewBox="0 0 995.862 1026.087" enable-background="new 0 0 995.862 1026.087" xml:space="preserve">
<g>
	<defs>
		<rect id="SVGID_1_" width="995.862" height="1026.087"/>
	</defs>
	<clipPath id="SVGID_2_">
		<use xlink:href="#SVGID_1_"  overflow="visible"/>
	</clipPath>
	<path clip-path="url(#SVGID_2_)" fill="#F2D9C4" d="M951.711,281.47l-51.013,16.684c-23.837,7.796-49.719-5.329-57.515-29.166v0
		c-7.796-23.837,5.329-49.719,29.166-57.515l51.013-16.684c23.837-7.796,49.719,5.329,57.515,29.166l0,0
		C988.672,247.793,975.548,273.674,951.711,281.47z"/>
	<path clip-path="url(#SVGID_2_)" fill="#F2D9C4" d="M627.783,708.294l-25.125,19.623c-69.121,53.984-169.842,41.599-223.826-27.522
		l-43.216-55.334c-53.984-69.121-41.599-169.842,27.522-223.826l25.125-19.623c69.121-53.984,169.842-41.599,223.826,27.522
		l43.216,55.334C709.288,553.589,696.904,654.311,627.783,708.294z"/>
	<polygon clip-path="url(#SVGID_2_)" fill="#F2D9C4" points="532.414,396.227 664,340.893 764.667,529.56 799.455,639.03 
		584.264,745.868 536.667,759.56 501.333,759.56 509.71,404.455 	"/>
	
		<rect x="201.812" y="594.461" transform="matrix(0.7071 0.7071 -0.7071 0.7071 594.5881 -19.2072)" clip-path="url(#SVGID_2_)" fill="#F2D9C4" width="237.333" height="227.333"/>
	<polygon clip-path="url(#SVGID_2_)" fill="#C2D64A" points="329.747,869.618 149.202,689.807 240.828,597.82 421.368,777.617 	"/>
	<polygon clip-path="url(#SVGID_2_)" fill="#21B1BF" points="-24.444,1238.834 -218.586,1045.47 216.934,608.199 411.073,801.573 	
		"/>
	<polygon clip-path="url(#SVGID_2_)" fill="#1995A3" points="396.665,816.02 202.513,622.653 216.932,608.193 411.08,801.57 	"/>
	<polygon clip-path="url(#SVGID_2_)" fill="#A4B83B" points="432.025,788.24 341.859,698.44 324.754,715.598 414.93,805.403 	"/>
	<polygon clip-path="url(#SVGID_2_)" fill="#1995A3" points="310.357,730.058 -110.748,1152.878 -13.771,1249.466 407.325,826.641 	
		"/>
	<polygon clip-path="url(#SVGID_2_)" fill="#1995A3" points="324.757,715.6 310.362,730.058 407.329,826.642 421.725,812.183 
		414.924,805.4 	"/>
	<g clip-path="url(#SVGID_2_)">
		<path fill="#5C6475" d="M762.353,658.786c-5.833,17.062-24.393,26.166-41.455,20.333l-239.846-81.99
			c-17.063-5.833-26.166-24.393-20.333-41.455L637.659,38.064c5.833-17.062,24.393-26.166,41.455-20.333l239.847,81.99
			c17.062,5.833,26.166,24.393,20.333,41.455L762.353,658.786z"/>
		
			<rect x="566.418" y="110.837" transform="matrix(0.9462 0.3235 -0.3235 0.9462 146.4117 -209.7175)" fill="#351C15" width="275.415" height="449.547"/>
		<circle fill="#FFFFFF" stroke="#010101" stroke-width="0.4927" stroke-miterlimit="10" cx="616.471" cy="595.929" r="24.919"/>
		<path fill="#FFFFFF" stroke="#010101" stroke-width="0.4927" stroke-miterlimit="10" d="M826.322,106.093
			c-1.615,4.725-6.755,7.246-11.48,5.631L753.631,90.8c-4.725-1.615-7.246-6.755-5.631-11.48l0.047-0.138
			c1.615-4.725,6.755-7.246,11.48-5.631l61.211,20.925c4.725,1.615,7.246,6.755,5.631,11.48L826.322,106.093z"/>
	</g>
	<path clip-path="url(#SVGID_2_)" fill="#F2D9C4" d="M893.607,417.719h-41.008c-25.08,0-45.599-20.52-45.599-45.599v-4.492
		c0-25.08,20.52-45.599,45.599-45.599h41.008c25.08,0,45.599,20.52,45.599,45.599v4.492
		C939.206,397.199,918.687,417.719,893.607,417.719z"/>
	<path clip-path="url(#SVGID_2_)" fill="#F2D9C4" d="M838.189,536.085l-47.359-6.458c-24.85-3.388-42.409-26.492-39.02-51.342
		l1.271-9.32c3.388-24.85,26.492-42.409,51.342-39.02l47.359,6.458c24.85,3.388,42.409,26.492,39.02,51.342l-1.271,9.32
		C886.143,521.914,863.039,539.473,838.189,536.085z"/>
	<path clip-path="url(#SVGID_2_)" fill="#F2D9C4" d="M768.209,643.222l-42.554-9.597c-24.465-5.518-39.968-30.049-34.45-54.514v0
		c5.518-24.465,30.049-39.968,54.514-34.45l42.554,9.597c24.465,5.518,39.968,30.049,34.45,54.514l0,0
		C817.205,633.237,792.674,648.74,768.209,643.222z"/>
	<path clip-path="url(#SVGID_2_)" fill="#F2D9C4" d="M619.591,192.54L619.591,192.54c36.642,36.642,10.766,103.031-9.509,122.559
		L501.333,414.82c-20.276,19.528,38.664-65.259,19.136-85.534l0,0c-19.528-20.276-18.917-52.843,1.359-72.371l46.016-44.32
		l36.865-35.506L619.591,192.54z"/>
	<polygon clip-path="url(#SVGID_2_)" fill="#F2D9C4" points="314.167,500.791 337.141,449.35 439.874,320.527 528.674,251.576 
		588.459,193.996 546.909,371.94 389.446,520.09 	"/>
	<g clip-path="url(#SVGID_2_)">
		<path fill="#FDB515" d="M729.91,383.338l-1.567,5.289l0.956,0.283c0,0,0.587-1.981,0.654-2.206
			c0.063,0.019,0.089,0.026,0.135,0.04c0.039,0.127,0.783,2.632,0.783,2.632l1.156,0.343c0,0-0.821-2.549-0.902-2.8
			c0.748,0.04,1.371-0.327,1.589-1.059c0.222-0.751-0.003-1.691-1.301-2.076C731.413,383.784,729.91,383.338,729.91,383.338z
			 M731.073,384.521c0.812,0.241,0.799,0.671,0.697,1.016c-0.147,0.497-0.459,0.767-1.481,0.464c0,0-0.059-0.018-0.118-0.035
			c0.06-0.202,0.406-1.369,0.467-1.575C730.792,384.438,731.073,384.521,731.073,384.521z M734.248,387.516
			c-0.584,1.969-2.661,3.1-4.644,2.512c-1.974-0.585-3.103-2.665-2.519-4.635c0.585-1.974,2.668-3.112,4.641-2.527
			C733.709,383.453,734.833,385.542,734.248,387.516z M731.951,382.096c-2.394-0.709-4.924,0.675-5.633,3.07
			c-0.71,2.395,0.662,4.918,3.056,5.627c2.409,0.714,4.928-0.656,5.638-3.051C735.722,385.347,734.36,382.81,731.951,382.096z
			 M694.786,380.54c-2.796-2.341-25.579-21.538-31.986-30.986c-6.901-10.171-8.539-22.324-4.739-35.148l18.063-60.952
			c16.647-3.362,35.211-2.066,55.183,3.853c19.973,5.919,36.245,14.946,48.37,26.834l-18.063,60.952
			c-3.801,12.825-11.794,22.124-23.117,26.893C728.143,376.346,698.218,380.119,694.786,380.54z"/>
		<path fill="#351C15" d="M662.818,315.818c-3.366,11.358-1.975,22.084,4.077,30.949c5.344,7.832,24.117,24.067,29.432,28.577
			c6.821-0.872,31.321-4.15,40.24-7.931c9.991-4.234,16.891-12.263,20.289-23.728l17.683-59.672
			c-29.314-11.734-65.491-20.584-101.389-3.061C673.15,280.952,662.818,315.818,662.818,315.818z M668.491,313.552l8.391-28.315
			l9.005,2.669l-8.51,28.716c-0.757,2.554-1.26,6.52,2.869,7.743c1.829,0.542,3.408,0.545,4.588,0.163l10.062-33.953l8.993,2.665
			l-11.58,39.077c-4.135,1.321-9.133,1.229-14.647-0.405C668.75,329.273,665.662,323.098,668.491,313.552z M699.446,358.279
			l-9.011-2.67l17.397-58.706c3.89-1.141,8.179-1.062,13.091,0.394c10.751,3.186,14.245,13.096,10.354,26.228
			c-3.899,13.156-12.31,20.464-22.307,17.501c-1.848-0.548-3.08-1.181-3.902-1.714L699.446,358.279L699.446,358.279z
			 M715.45,304.272c0.839-0.146,2.162-0.066,3.383,0.296c5.227,1.549,6.157,6.365,3.167,16.457
			c-2.918,9.847-6.805,13.869-11.989,12.333c-1.219-0.361-2.189-0.975-2.762-1.409L715.45,304.272L715.45,304.272z M736.148,314.578
			c2.119-7.29,9.586-9.741,15.564-8.158c4.989,1.314,7.793,4.167,9.017,5.855l-2.321,7.832c-1.306-2.483-3.833-5.132-6.974-6.094
			c-2.545-0.778-5.537-0.442-6.573,2.733c-1.059,3.252,1.209,5.335,3.987,8.301c6.216,6.654,6.491,11.061,4.763,16.264
			c-1.88,5.709-7.715,10.821-16.617,8.183c-3.559-1.055-6.751-3.211-9.074-5.727l2.459-8.296c1.694,2.73,4.656,5.345,7.524,6.218
			c3.3,0.993,6.035-0.256,6.889-3.421c0.772-2.846-0.37-4.856-3.643-8.358C735.012,323.353,734.742,319.374,736.148,314.578z"/>
	</g>
</g>
</svg>
